<svg version="1.1" id="Layer_1" xmlns="http://www.w3.org/2000/svg" xmlns:xlink="http://www.w3.org/1999/xlink" x="0px" y="0px"
	 width="100%" viewBox="0 0 202 242" enable-background="new 0 0 202 242" xml:space="preserve">
<path fill="#000000" opacity="1.000000" stroke="none" 
	d="
M1.000000,92.000000 
	C1.000000,61.333340 1.000000,31.166677 1.000000,1.000012 
	C68.333321,1.000008 135.666641,1.000008 202.999969,1.000004 
	C202.999969,81.666634 202.999969,162.333267 202.999985,242.999939 
	C135.666718,242.999954 68.333420,242.999954 1.000066,242.999969 
	C1.000000,192.833328 1.000000,142.666672 1.000000,92.000000 
M141.489319,127.335693 
	C133.670502,127.265182 125.851692,127.194679 117.630318,126.994194 
	C117.630318,126.994194 117.208809,126.958229 116.820427,126.513771 
	C116.153748,126.666634 115.487061,126.819489 114.504959,126.965546 
	C114.504959,126.965546 114.189583,126.974380 113.922630,126.623215 
	C113.591713,126.733444 113.260788,126.843674 112.986099,126.977325 
	C112.986099,126.977325 112.968674,126.918953 112.193176,127.021805 
	C108.101097,129.463318 107.746567,133.118759 111.004593,140.050171 
	C111.004593,140.050171 110.926346,139.967575 110.998833,140.597382 
	C111.317688,141.101746 111.636551,141.606110 112.252670,142.707352 
	C114.127747,144.815659 116.002815,146.923950 118.289261,149.619720 
	C123.186974,151.753906 128.084686,153.888077 133.006149,155.998535 
	C133.006149,155.998535 132.973099,156.003357 133.027893,156.626862 
	C133.338791,157.126282 133.649689,157.625702 133.972092,159.032532 
	C134.370728,163.351135 134.769363,167.669739 134.943512,172.476501 
	C134.643738,172.907013 134.343979,173.337524 133.488861,174.184570 
	C131.964798,175.437286 130.477356,176.737885 128.910873,177.935104 
	C116.837769,187.162216 103.062286,191.165344 87.189850,191.040070 
	C82.804626,190.336899 78.419411,189.633743 73.998779,188.983810 
	C73.998779,188.983810 74.058800,188.962234 73.736679,188.433197 
	C73.144501,188.330246 72.552322,188.227280 71.342087,187.815353 
	C70.251076,187.529053 69.160072,187.242737 67.849556,186.551392 
	C67.651924,186.263901 67.381477,186.151611 66.575981,186.049026 
	C66.575981,186.049026 66.096291,185.944443 65.700882,185.371399 
	C56.177357,181.353943 49.006222,174.317825 41.907898,166.282700 
	C40.480968,163.988174 38.629765,161.851013 37.709099,159.368713 
	C35.249069,152.736008 33.188602,145.955093 30.524822,139.055038 
	C30.524822,139.055038 30.053282,138.968475 30.322817,138.178146 
	C30.546650,132.467285 30.770485,126.756409 31.560850,120.533440 
	C31.712202,119.028519 31.863552,117.523598 32.539856,115.603134 
	C32.632038,114.733734 32.724224,113.864326 33.148930,112.340363 
	C35.703251,107.237816 38.257572,102.135277 41.131271,96.413101 
	C44.694229,92.254250 48.257187,88.095398 52.155849,83.355659 
	C53.786251,81.941132 55.416653,80.526596 57.752956,79.013741 
	C59.164780,78.284691 60.576603,77.555649 62.745605,76.974640 
	C63.672031,76.706345 64.666969,76.574463 65.514389,76.148865 
	C74.987427,71.391113 85.101562,69.437889 95.569740,70.127357 
	C101.067329,70.489456 106.483406,72.088905 112.348251,73.754265 
	C113.873177,74.329155 115.367752,75.008919 116.928368,75.460434 
	C123.054779,77.232880 129.055161,76.317101 133.234604,71.702782 
	C136.199020,68.429893 137.485641,63.635666 134.922775,58.259460 
	C131.930511,55.259796 128.938263,52.260132 126.667931,49.061924 
	C127.412979,49.053432 128.158035,49.044945 129.318130,49.691193 
	C134.436050,51.314632 137.129730,46.743050 140.960358,45.915924 
	C139.452606,51.532501 138.590530,56.760349 140.415115,62.923336 
	C141.727081,67.354767 141.492569,71.024765 147.221863,71.549240 
	C143.697739,77.224983 148.660507,78.231468 152.256027,80.640190 
	C152.798309,80.793655 153.340576,80.947121 154.401474,81.730370 
	C158.590851,82.143196 162.930786,83.423676 166.928131,82.729950 
	C171.101395,82.005692 176.561539,83.385162 179.704575,77.780708 
	C180.796692,77.235489 181.888824,76.690269 183.681931,75.997147 
	C195.147903,67.086960 197.636932,54.478764 198.747147,40.487202 
	C198.827957,36.194248 199.138641,31.885670 198.848557,27.617918 
	C198.762299,26.348822 197.017807,24.176346 195.984177,24.147087 
	C187.012207,23.893154 178.028732,24.008722 169.050415,24.136827 
	C168.644531,24.142618 168.255386,25.322529 167.161270,25.983685 
	C166.110321,26.374813 165.059372,26.765942 163.303955,27.039251 
	C161.857407,27.657705 160.410873,28.276157 158.242554,28.970453 
	C156.185791,30.024052 154.129028,31.077652 151.402710,32.236706 
	C148.645096,34.808441 145.887466,37.380173 142.811295,39.334167 
	C141.905884,35.859402 141.000473,32.384636 140.008316,28.206308 
	C136.673386,26.194941 133.338440,24.183573 129.339401,22.056633 
	C128.893051,22.094355 128.446686,22.132074 127.315269,22.009912 
	C126.222679,21.652992 125.130096,21.296072 123.625168,20.350657 
	C122.447052,20.200792 121.268944,20.050930 119.595215,19.321131 
	C117.436852,19.606220 115.278488,19.891310 113.311050,20.151180 
	C112.886925,24.983915 111.744637,29.274464 112.378609,33.284176 
	C112.985672,37.123775 112.308037,42.417355 118.565292,44.119331 
	C119.359093,44.777523 120.152893,45.435719 120.959496,46.526859 
	C120.959496,46.526859 120.884621,46.953259 120.095505,47.012253 
	C118.776917,47.004875 117.458321,46.997494 115.724709,46.325859 
	C111.532364,45.529469 107.359871,44.603065 103.144226,43.959202 
	C84.918983,41.175594 67.495506,43.657589 50.437992,52.140579 
	C49.965645,52.473980 49.493298,52.807381 48.340221,53.233166 
	C40.211311,60.116955 32.082401,67.000740 23.334534,74.201088 
	C22.708044,75.151016 22.000626,76.057838 21.468012,77.057777 
	C17.588705,84.340904 13.744559,91.642776 9.275433,99.353920 
	C7.848204,105.543434 6.420975,111.732956 4.384454,118.525620 
	C4.288122,124.972755 3.803036,131.445358 4.223278,137.858643 
	C4.537341,142.651550 6.019590,147.367920 7.002045,152.918747 
	C9.075740,158.923645 11.149435,164.928528 13.414431,171.582535 
	C14.218955,172.568527 15.065830,173.523270 15.820586,174.545990 
	C18.888939,178.703735 21.929029,182.882324 25.075779,187.243225 
	C25.075779,187.243225 25.267803,187.335358 25.678791,187.902954 
	C35.519012,199.486557 47.831543,207.479919 62.707119,212.980576 
	C64.445496,213.323303 66.183868,213.666031 68.428261,214.592056 
	C80.395142,218.483368 92.754036,217.378845 104.888748,216.551987 
	C111.015465,216.134521 116.944763,212.819717 123.677795,210.912323 
	C125.477394,209.971634 127.277000,209.030930 129.781006,207.961731 
	C131.560638,207.389053 133.340256,206.816360 135.029419,206.981750 
	C135.681641,208.789383 136.620560,210.548798 136.934265,212.413376 
	C138.032089,218.938339 142.814758,222.144501 148.297684,225.754593 
	C152.183624,226.780197 156.069565,227.805801 160.732391,229.216171 
	C168.847351,229.446365 176.961761,229.723907 185.078308,229.820847 
	C185.760437,229.828995 186.457047,228.624283 187.659821,227.573456 
	C185.781647,224.028214 183.903473,220.482956 181.961380,216.238541 
	C180.013687,214.147293 178.065979,212.056046 175.805893,209.344025 
	C173.358948,207.839706 171.023407,206.096710 168.437714,204.889648 
	C164.975662,203.273499 162.010162,201.572433 162.945862,196.093338 
	C162.957443,183.437943 163.131592,170.779495 162.892410,158.128830 
	C162.808655,153.699036 161.708099,149.288467 161.026810,144.221191 
	C160.702835,143.467545 160.378860,142.713898 160.001266,141.248993 
	C157.383560,136.038788 153.695740,131.953659 148.046005,129.963242 
	C148.046005,129.963242 148.111481,129.966156 147.806412,129.415741 
	C147.207184,129.328568 146.607971,129.241394 145.579254,129.022186 
	C145.579254,129.022186 145.132660,128.972656 144.751022,128.400208 
	C143.858322,128.256470 142.965622,128.112717 141.489319,127.335693 
z"/>
<path fill="#67A02D" opacity="1.000000" stroke="none" 
	d="
M159.955505,228.831421 
	C156.069565,227.805801 152.183624,226.780197 148.117279,225.158051 
	C147.940765,224.373871 147.944672,224.186249 148.042847,223.770065 
	C147.746536,222.703140 147.355927,221.864761 146.974335,221.019012 
	C146.983353,221.011673 146.954498,221.030334 146.992737,220.638794 
	C147.552078,217.826309 148.530579,215.403763 148.522141,212.984650 
	C148.453201,193.182632 147.809952,173.373230 148.216904,153.584076 
	C148.357712,146.737045 145.710587,139.684540 149.326096,133.005005 
	C150.429901,133.380463 151.216248,133.704529 152.151932,134.187073 
	C152.503342,134.552963 152.713058,134.752350 153.111511,135.223190 
	C154.539200,137.327911 155.785782,139.153137 157.107880,141.295746 
	C157.793457,142.743774 158.403534,143.874466 159.024231,145.237991 
	C159.034851,145.470840 159.065247,145.936020 159.055191,146.407104 
	C159.314163,155.817169 159.674377,164.754547 159.828003,173.695496 
	C160.001144,183.772720 159.988251,193.853149 159.856628,204.245682 
	C156.069534,212.381256 155.195541,220.170929 159.942261,228.127991 
	C159.948822,228.362427 159.955505,228.831421 159.955505,228.831421 
z"/>
<path fill="#6CA42C" opacity="1.000000" stroke="none" 
	d="
M182.980957,76.145050 
	C181.888824,76.690269 180.796692,77.235489 179.119385,77.895279 
	C178.336807,78.002533 178.139420,77.995209 177.573608,77.986725 
	C176.466873,77.981621 175.728577,77.977661 174.982849,77.582993 
	C172.835876,72.035606 173.451263,66.790611 173.791641,61.371548 
	C174.088928,56.638935 172.664307,51.798164 172.161896,46.664818 
	C172.826126,43.957932 173.730362,41.593838 173.744766,39.224342 
	C173.771500,34.821575 173.279236,30.415653 173.389496,25.979118 
	C176.509354,25.944706 179.242767,25.942221 181.954605,26.370121 
	C181.635834,39.389126 181.166672,51.978607 181.229843,64.565414 
	C181.239151,66.418839 183.772598,68.259590 185.021271,70.345177 
	C184.629532,71.039528 184.354721,71.494911 183.878143,72.058006 
	C183.473694,72.791824 183.271057,73.417923 183.053619,74.393852 
	C183.019531,75.210800 183.000244,75.677925 182.980957,76.145050 
z"/>
<path fill="#68287C" opacity="1.000000" stroke="none" 
	d="
M66.096291,185.944427 
	C66.096291,185.944443 66.575981,186.049026 66.972443,186.265015 
	C67.594055,186.651611 67.827438,186.810089 68.069061,186.956436 
	C69.160072,187.242737 70.251076,187.529053 71.900955,188.106064 
	C72.992821,188.585251 73.525810,188.773743 74.058800,188.962234 
	C74.058800,188.962234 73.998779,188.983810 74.124557,189.244263 
	C74.863297,190.315277 75.476273,191.125854 75.762192,192.000229 
	C72.525635,193.074997 69.409904,193.713608 66.754898,195.184067 
	C62.761585,197.395782 59.340858,200.550949 54.243866,200.413193 
	C53.183704,200.384583 52.058353,202.768890 50.599091,203.991150 
	C45.318554,202.117630 40.368744,200.340195 38.079472,194.743469 
	C42.911777,191.048309 46.890697,186.337524 53.651684,186.970032 
	C54.659283,187.064301 55.865444,185.036026 57.350071,184.081787 
	C60.512360,184.764069 63.304325,185.354248 66.096291,185.944427 
z"/>
<path fill="#7E3B67" opacity="1.000000" stroke="none" 
	d="
M30.969349,139.233078 
	C33.188602,145.955093 35.249069,152.736008 37.709099,159.368713 
	C38.629765,161.851013 40.480968,163.988174 41.691719,166.510071 
	C40.645844,166.490723 39.816143,166.243988 38.776047,165.738068 
	C36.506786,163.917297 33.827446,160.619598 32.496658,161.095215 
	C26.783623,163.136993 21.467243,166.288635 15.743036,169.140381 
	C14.727539,169.807755 13.975332,170.370590 13.223127,170.933426 
	C11.149435,164.928528 9.075740,158.923645 7.225481,152.347122 
	C7.965355,151.515884 8.481793,151.256271 9.136019,151.322693 
	C12.016736,158.353210 11.862550,157.781677 18.559214,155.975067 
	C27.483685,153.567459 32.534924,149.052063 30.969349,139.233078 
z"/>
<path fill="#703172" opacity="1.000000" stroke="none" 
	d="
M38.986446,165.997253 
	C39.816143,166.243988 40.645844,166.490723 41.778599,166.851379 
	C49.006222,174.317825 56.177357,181.353943 65.898590,185.657913 
	C63.304325,185.354248 60.512360,184.764069 57.120209,183.835846 
	C52.772316,179.982574 48.667389,178.247635 43.212765,178.839539 
	C37.041016,179.509247 33.423122,183.808136 28.506468,187.043488 
	C27.118277,187.158646 26.193039,187.246994 25.267803,187.335358 
	C25.267803,187.335358 25.075779,187.243225 25.174931,186.940887 
	C24.178747,184.100128 23.083410,181.561707 22.328608,178.889221 
	C29.740995,176.590805 35.297234,172.487991 38.986446,165.997253 
z"/>
<path fill="#5D9733" opacity="1.000000" stroke="none" 
	d="
M164.008423,27.157066 
	C165.059372,26.765942 166.110321,26.374813 167.598740,25.980801 
	C168.036209,25.977919 168.193573,26.063183 168.097702,26.467430 
	C167.627365,32.945522 167.052460,39.015297 166.928970,45.094238 
	C166.773178,52.763439 166.999557,60.440063 167.033768,68.113602 
	C167.052780,72.378822 167.016235,76.644295 166.589218,80.929794 
	C164.787292,80.955910 163.400879,80.961891 161.956207,80.554733 
	C161.596359,74.428238 161.294800,68.714890 161.181915,62.732750 
	C162.789749,60.171978 165.925308,58.258892 163.184250,54.850235 
	C163.573288,54.470085 163.784790,54.242641 163.831802,53.724609 
	C163.098434,51.313622 162.068695,49.191311 162.037903,47.054607 
	C161.976395,42.785637 162.366745,38.499947 162.760040,34.238647 
	C162.979584,31.859976 163.579758,29.516438 164.008423,27.157066 
z"/>
<path fill="#90455C" opacity="1.000000" stroke="none" 
	d="
M30.994320,121.045540 
	C30.770485,126.756409 30.546650,132.467285 29.879742,138.716095 
	C22.635389,142.492157 15.834113,145.730255 8.935947,148.594604 
	C8.232380,144.810455 7.625700,141.400040 7.448845,137.990997 
	C12.926609,136.628220 18.094986,135.592773 22.986118,133.800674 
	C27.247824,132.239197 29.408606,128.752487 29.029587,123.687508 
	C29.732473,122.601738 30.363398,121.823639 30.994320,121.045540 
z"/>
<path fill="#9E5052" opacity="1.000000" stroke="none" 
	d="
M31.277584,120.789490 
	C30.363398,121.823639 29.732473,122.601738 28.636654,123.712357 
	C25.481468,124.753448 22.779398,125.420509 20.103556,126.179977 
	C15.724333,127.422905 11.362177,128.725967 6.936194,129.601074 
	C6.902662,125.473839 6.925757,121.749176 7.212277,118.013268 
	C7.650983,117.996254 7.826264,117.990494 8.070839,118.342804 
	C9.600170,119.702454 11.083457,121.597389 12.516461,121.560104 
	C21.574387,121.324379 29.205698,115.413567 32.123474,106.677933 
	C33.852684,103.567368 35.443874,100.775360 37.350849,97.906960 
	C38.715057,97.564629 39.763477,97.298683 40.811897,97.032738 
	C38.257572,102.135277 35.703251,107.237816 32.767082,112.812492 
	C32.261791,114.195976 32.138348,115.107323 32.014904,116.018677 
	C31.863552,117.523598 31.712202,119.028519 31.277584,120.789490 
z"/>
<path fill="#A75D4A" opacity="1.000000" stroke="none" 
	d="
M116.139732,46.990120 
	C117.458321,46.997494 118.776917,47.004875 120.830566,47.078056 
	C122.687531,47.492680 123.809448,47.841496 125.071716,48.394104 
	C125.430153,48.848186 125.674789,49.069042 125.945999,49.260468 
	C128.938263,52.260132 131.930511,55.259796 134.799103,58.947609 
	C134.452209,60.431396 134.183594,61.217419 134.012634,62.024132 
	C131.791641,72.504684 125.152313,76.215416 114.837364,72.748344 
	C113.898979,72.432938 112.917313,72.246269 111.598450,71.908707 
	C108.487122,70.894073 105.733109,69.970551 103.306168,68.887573 
	C105.092712,68.610390 106.552109,68.392883 108.011650,68.391891 
	C114.987434,68.387161 121.748741,67.858749 127.890709,63.838493 
	C132.484894,60.831348 132.914627,57.366219 128.408981,54.215984 
	C127.084312,53.289814 125.445580,52.812832 123.627670,51.969482 
	C120.547844,50.873695 117.791138,49.938404 115.138885,48.733749 
	C115.542145,47.972961 115.840942,47.481541 116.139732,46.990120 
z"/>
<path fill="#8A3F64" opacity="1.000000" stroke="none" 
	d="
M9.032840,148.968353 
	C15.834113,145.730255 22.635389,142.492157 29.744972,139.111267 
	C30.053282,138.968475 30.524822,139.055038 30.747086,139.144058 
	C32.534924,149.052063 27.483685,153.567459 18.559214,155.975067 
	C11.862550,157.781677 12.016736,158.353210 9.139294,150.984848 
	C9.014134,149.870102 9.023488,149.419235 9.032840,148.968353 
z"/>
<path fill="#71973F" opacity="1.000000" stroke="none" 
	d="
M160.056274,203.932175 
	C159.988251,193.853149 160.001144,183.772720 159.828003,173.695496 
	C159.674377,164.754547 159.314163,155.817169 159.319305,146.303864 
	C160.086258,145.442734 160.579056,145.155930 161.071854,144.869110 
	C161.708099,149.288467 162.808655,153.699036 162.892410,158.128830 
	C163.131592,170.779495 162.957443,183.437943 162.744781,196.894989 
	C162.711716,200.088791 162.879745,202.480942 162.736282,204.822937 
	C161.635284,204.492584 160.845779,204.212372 160.056274,203.932175 
z"/>
<path fill="#5B3B6B" opacity="1.000000" stroke="none" 
	d="
M135.119888,206.243668 
	C133.340256,206.816360 131.560638,207.389053 129.371368,207.959106 
	C128.961746,207.956482 128.846649,207.822937 128.993164,207.520767 
	C135.436081,202.691574 135.758682,196.323303 134.608398,189.496841 
	C134.443100,188.515839 134.284790,187.531693 134.178070,186.543091 
	C133.452957,179.826050 131.619843,178.986435 125.835686,182.854782 
	C117.401672,188.495316 108.257225,191.919724 97.692078,192.047592 
	C96.593460,192.371521 95.808517,192.653839 94.629959,192.921234 
	C92.173233,192.641922 90.110130,192.377533 88.037399,191.886292 
	C88.027771,191.659454 88.004913,191.205933 88.004913,191.205933 
	C103.062286,191.165344 116.837769,187.162216 128.910873,177.935104 
	C130.477356,176.737885 131.964798,175.437286 134.052826,174.224915 
	C138.115463,184.872330 138.097931,195.534714 135.119888,206.243668 
z"/>
<path fill="#508A3A" opacity="1.000000" stroke="none" 
	d="
M152.072266,32.131248 
	C154.129028,31.077652 156.185791,30.024052 158.599701,29.357738 
	C158.639084,37.498028 158.321350,45.251030 157.887634,53.255398 
	C158.264618,54.550045 158.981827,55.551411 159.186890,56.648506 
	C159.388260,57.725952 159.069321,58.900654 158.762894,60.261871 
	C157.368057,61.335152 156.189026,62.179230 154.856781,62.674339 
	C154.135986,57.683552 153.648773,53.030045 152.975891,48.403542 
	C152.421082,44.588840 151.646454,40.806110 151.053146,36.662025 
	C151.448792,34.920307 151.760529,33.525780 152.072266,32.131248 
z"/>
<path fill="#437244" opacity="1.000000" stroke="none" 
	d="
M151.737488,32.183975 
	C151.760529,33.525780 151.448792,34.920307 150.761932,36.828583 
	C149.250595,39.227367 148.114365,41.112411 146.693466,43.178787 
	C146.050217,43.694244 145.574326,43.964043 145.350586,44.372101 
	C141.651413,51.118694 144.334000,58.050522 145.000488,64.886093 
	C145.049469,65.388443 147.612213,65.645683 149.304901,65.893631 
	C150.423965,65.511971 151.244400,65.253563 152.057068,65.322205 
	C152.048904,66.084824 152.048508,66.520378 151.860352,67.216591 
	C150.185211,68.622429 148.697815,69.767609 147.210434,70.912796 
	C141.492569,71.024765 141.727081,67.354767 140.415115,62.923336 
	C138.590530,56.760349 139.452606,51.532501 140.928589,45.155998 
	C140.814026,43.912308 140.731262,43.428543 140.730438,42.639412 
	C140.862549,42.129669 140.912689,41.925301 141.234344,41.620163 
	C142.047195,40.996899 142.588516,40.474403 143.129852,39.951908 
	C145.887466,37.380173 148.645096,34.808441 151.737488,32.183975 
z"/>
<path fill="#B2704B" opacity="1.000000" stroke="none" 
	d="
M115.932220,46.657990 
	C115.840942,47.481541 115.542145,47.972961 114.804047,48.726826 
	C113.919243,48.979698 113.473724,48.970131 112.724304,48.748207 
	C109.638565,47.988934 106.856735,47.442020 103.741150,46.705666 
	C89.092491,43.382359 75.202576,44.631226 61.677471,50.347237 
	C58.220737,51.808132 54.562897,52.793171 50.981178,53.977634 
	C50.964901,53.958435 50.932362,53.920013 50.949944,53.621727 
	C50.985744,52.924683 51.003960,52.525921 51.022175,52.127159 
	C67.495506,43.657589 84.918983,41.175594 103.144226,43.959202 
	C107.359871,44.603065 111.532364,45.529469 115.932220,46.657990 
z"/>
<path fill="#65834F" opacity="1.000000" stroke="none" 
	d="
M135.074646,206.612701 
	C138.097931,195.534714 138.115463,184.872330 134.330505,174.016663 
	C134.343979,173.337524 134.643738,172.907013 135.395538,172.236420 
	C136.527130,172.003189 137.206696,172.010040 138.054474,172.193665 
	C138.442352,172.608246 138.665115,172.843124 138.868561,173.487015 
	C138.842010,178.021622 138.792435,182.144867 138.844498,186.266800 
	C138.918869,192.155731 138.854919,198.057709 139.241257,203.928391 
	C139.674530,210.512131 139.567871,217.510651 146.954498,221.030334 
	C146.954498,221.030334 146.983353,221.011673 147.013916,221.333511 
	C147.345840,222.436432 147.647202,223.217529 147.948563,223.998611 
	C147.944672,224.186249 147.940765,224.373871 147.931824,224.842773 
	C142.814758,222.144501 138.032089,218.938339 136.934265,212.413376 
	C136.620560,210.548798 135.681641,208.789383 135.074646,206.612701 
z"/>
<path fill="#477844" opacity="1.000000" stroke="none" 
	d="
M118.015373,43.825455 
	C112.308037,42.417355 112.985672,37.123775 112.378609,33.284176 
	C111.744637,29.274464 112.886925,24.983915 113.311050,20.151180 
	C115.278488,19.891310 117.436852,19.606220 119.636993,19.941580 
	C119.121010,22.914570 118.186752,25.250446 118.081734,27.623028 
	C117.843102,33.014256 118.012077,38.423519 118.015373,43.825455 
z"/>
<path fill="#589235" opacity="1.000000" stroke="none" 
	d="
M158.003601,53.004032 
	C158.321350,45.251030 158.639084,37.498028 158.960571,29.319817 
	C160.410873,28.276157 161.857407,27.657705 163.656189,27.098160 
	C163.579758,29.516438 162.979584,31.859976 162.760040,34.238647 
	C162.366745,38.499947 161.976395,42.785637 162.037903,47.054607 
	C162.068695,49.191311 163.098434,51.313622 163.504074,53.724426 
	C162.894745,54.007160 162.457687,54.007912 161.684875,53.928524 
	C160.233932,53.566929 159.118774,53.285480 158.003601,53.004032 
z"/>
<path fill="#4D8A38" opacity="1.000000" stroke="none" 
	d="
M118.290329,43.972393 
	C118.012077,38.423519 117.843102,33.014256 118.081734,27.623028 
	C118.186752,25.250446 119.121010,22.914570 119.884804,20.231548 
	C121.268944,20.050930 122.447052,20.200792 123.694931,21.019688 
	C123.508026,25.457048 123.251350,29.225378 122.985107,33.414139 
	C122.299271,37.921017 121.622978,42.007465 120.946693,46.093910 
	C120.152893,45.435719 119.359093,44.777523 118.290329,43.972393 
z"/>
<path fill="#643669" opacity="1.000000" stroke="none" 
	d="
M25.473297,187.619156 
	C26.193039,187.246994 27.118277,187.158646 28.702997,187.312805 
	C32.222408,190.059280 35.082336,192.563248 37.942261,195.067215 
	C40.368744,200.340195 45.318554,202.117630 50.845726,204.116989 
	C51.948734,204.543808 52.441151,204.794739 53.035423,205.376221 
	C55.076984,206.785645 57.016693,207.864517 59.209480,209.116241 
	C60.309467,209.860413 61.156372,210.431732 61.995911,211.314423 
	C61.971146,212.040710 61.953735,212.455658 61.936333,212.870590 
	C47.831543,207.479919 35.519012,199.486557 25.473297,187.619156 
z"/>
<path fill="#427646" opacity="1.000000" stroke="none" 
	d="
M117.208809,126.958221 
	C117.208809,126.958229 117.630318,126.994194 117.989166,127.224358 
	C118.562965,127.669823 118.786858,127.875389 118.918289,128.406799 
	C113.968735,139.664352 114.330055,142.768280 120.769524,148.235687 
	C119.606392,148.602249 118.742142,148.817245 117.877892,149.032257 
	C116.002815,146.923950 114.127747,144.815659 112.006851,142.126892 
	C111.482811,141.020142 111.204582,140.493851 110.926346,139.967575 
	C110.926346,139.967575 111.004593,140.050171 110.988449,139.657883 
	C111.637756,135.150040 112.303215,131.034500 112.968674,126.918953 
	C112.968674,126.918953 112.986099,126.977325 113.272835,126.975967 
	C113.769569,126.974533 113.979576,126.974457 114.189583,126.974380 
	C114.189583,126.974380 114.504959,126.965546 115.061234,126.976807 
	C116.147934,126.978127 116.678375,126.968178 117.208809,126.958221 
z"/>
<path fill="#7F9E4D" opacity="1.000000" stroke="none" 
	d="
M184.079926,71.950294 
	C184.354721,71.494911 184.629532,71.039528 185.331238,70.212769 
	C187.473053,67.716759 189.956146,65.846375 190.759232,63.419949 
	C193.195206,56.059895 194.981018,48.484653 197.286621,41.003193 
	C197.730881,41.018883 197.908615,41.024616 198.086334,41.030354 
	C197.636932,54.478764 195.147903,67.086960 183.331451,76.071098 
	C183.000244,75.677925 183.019531,75.210800 183.209793,74.148132 
	C183.613815,73.018486 183.846863,72.484390 184.079926,71.950294 
z"/>
<path fill="#B2704B" opacity="1.000000" stroke="none" 
	d="
M23.953491,73.884529 
	C32.082401,67.000740 40.211311,60.116955 48.906124,53.316269 
	C49.958805,53.572922 50.445583,53.746471 50.932362,53.920013 
	C50.932362,53.920013 50.964901,53.958435 50.816917,54.268654 
	C49.385063,55.581589 48.030106,56.506241 46.829029,57.599892 
	C39.810699,63.990501 32.828411,70.420692 25.525976,76.855652 
	C24.805019,76.883270 24.392038,76.892754 23.977646,76.524994 
	C23.968655,75.393341 23.961075,74.638939 23.953491,73.884529 
z"/>
<path fill="#834955" opacity="1.000000" stroke="none" 
	d="
M8.935951,148.594604 
	C9.023488,149.419235 9.014134,149.870102 9.001506,150.658813 
	C8.481793,151.256271 7.965355,151.515884 7.215287,151.946930 
	C6.019590,147.367920 4.537341,142.651550 4.223278,137.858643 
	C3.803036,131.445358 4.288122,124.972755 5.014524,118.247345 
	C6.079347,117.987556 6.514100,118.006035 6.948853,118.024521 
	C6.925757,121.749176 6.902662,125.473839 6.933124,130.044556 
	C6.997461,133.256958 7.008241,135.623306 7.019021,137.989639 
	C7.625700,141.400040 8.232380,144.810455 8.935951,148.594604 
z"/>
<path fill="#7C9B4A" opacity="1.000000" stroke="none" 
	d="
M198.416748,40.758778 
	C197.908615,41.024616 197.730881,41.018883 197.307526,40.591408 
	C199.630630,28.385408 196.696762,23.775370 181.976181,25.939735 
	C179.242767,25.942221 176.509354,25.944706 172.986069,25.982920 
	C170.861984,26.033491 169.527786,26.048336 168.193573,26.063183 
	C168.193573,26.063183 168.036209,25.977919 167.947327,25.966743 
	C168.255386,25.322529 168.644531,24.142618 169.050415,24.136827 
	C178.028732,24.008722 187.012207,23.893154 195.984177,24.147087 
	C197.017807,24.176346 198.762299,26.348822 198.848557,27.617918 
	C199.138641,31.885670 198.827957,36.194248 198.416748,40.758778 
z"/>
<path fill="#A0685A" opacity="1.000000" stroke="none" 
	d="
M102.979088,69.047028 
	C105.733109,69.970551 108.487122,70.894073 111.594543,72.191177 
	C111.944069,72.753036 111.940178,72.941315 111.936295,73.129593 
	C106.483406,72.088905 101.067329,70.489456 95.569740,70.127357 
	C85.101562,69.437889 74.987427,71.391113 65.514389,76.148865 
	C64.666969,76.574463 63.672031,76.706345 62.498043,76.676559 
	C62.506222,75.927757 62.761963,75.477043 63.335907,74.914597 
	C65.098015,74.167404 66.541931,73.531944 68.350471,72.823059 
	C74.810669,71.156113 80.906235,69.562614 87.441605,67.976059 
	C89.934807,67.954956 91.988213,67.926910 94.363586,67.917068 
	C95.115829,67.936165 95.546104,67.937057 96.379662,67.956726 
	C98.848328,68.332672 100.913712,68.689850 102.979088,69.047028 
z"/>
<path fill="#603977" opacity="1.000000" stroke="none" 
	d="
M122.963333,210.814957 
	C116.944763,212.819717 111.015465,216.134521 104.888748,216.551987 
	C92.754036,217.378845 80.395142,218.483368 68.609726,214.305679 
	C71.845108,214.326096 74.899017,214.632874 78.292297,214.952576 
	C79.082893,214.977280 79.534103,214.989059 80.360748,215.169128 
	C85.150047,215.555740 89.563927,215.774063 94.380630,215.991150 
	C95.857674,215.984467 96.931885,215.979004 98.352020,215.958466 
	C99.789619,215.637756 100.881279,215.332108 102.385056,215.012344 
	C109.227486,213.334244 115.657799,211.670258 122.237885,210.136749 
	C122.583351,210.445801 122.775246,210.628372 122.963333,210.814957 
z"/>
<path fill="#915B57" opacity="1.000000" stroke="none" 
	d="
M112.142273,73.441925 
	C111.940178,72.941315 111.944069,72.753036 111.951851,72.282288 
	C112.917313,72.246269 113.898979,72.432938 114.837364,72.748344 
	C125.152313,76.215416 131.791641,72.504684 134.012634,62.024132 
	C134.183594,61.217419 134.452209,60.431396 134.842300,59.299370 
	C137.485641,63.635666 136.199020,68.429893 133.234604,71.702782 
	C129.055161,76.317101 123.054779,77.232880 116.928368,75.460434 
	C115.367752,75.008919 113.873177,74.329155 112.142273,73.441925 
z"/>
<path fill="#AE6D4F" opacity="1.000000" stroke="none" 
	d="
M23.644012,74.042809 
	C23.961075,74.638939 23.968655,75.393341 23.898090,76.841064 
	C23.529600,78.344238 23.239258,79.154099 22.700827,80.195251 
	C20.618223,83.607277 18.783707,86.787994 16.800570,90.250259 
	C16.422810,91.343452 16.193670,92.155106 15.654758,93.099243 
	C14.217126,95.157936 13.089268,97.084152 11.615730,99.002823 
	C10.809800,98.976433 10.349551,98.957581 9.889303,98.938721 
	C13.744559,91.642776 17.588705,84.340904 21.468012,77.057777 
	C22.000626,76.057838 22.708044,75.151016 23.644012,74.042809 
z"/>
<path fill="#6E9D3B" opacity="1.000000" stroke="none" 
	d="
M126.306961,49.161194 
	C125.674789,49.069042 125.430153,48.848186 125.136719,47.999832 
	C125.360466,43.242554 125.659569,39.083344 126.216530,34.920387 
	C126.646301,34.916595 126.818222,34.916557 127.405151,34.936775 
	C129.203918,34.985394 130.587662,35.013760 131.975830,35.432381 
	C131.968658,36.864391 131.957062,37.906143 131.689880,38.883698 
	C127.781113,39.716274 130.247482,41.617249 130.931168,42.891735 
	C132.485199,45.788700 133.016129,48.113350 128.903076,49.036453 
	C128.158035,49.044945 127.412979,49.053432 126.306961,49.161194 
z"/>
<path fill="#5D9733" opacity="1.000000" stroke="none" 
	d="
M126.990143,34.916519 
	C126.818222,34.916557 126.646301,34.916595 125.990646,34.734825 
	C124.669502,34.033245 123.832085,33.513477 122.994667,32.993706 
	C123.251350,29.225378 123.508026,25.457048 123.901108,21.313938 
	C125.130096,21.296072 126.222679,21.652992 127.656937,22.530237 
	C127.662445,27.005882 127.326294,30.961201 126.990143,34.916519 
z"/>
<path fill="#9A5B4F" opacity="1.000000" stroke="none" 
	d="
M9.582367,99.146324 
	C10.349551,98.957581 10.809800,98.976433 11.571995,99.378662 
	C11.565887,101.504082 11.257835,103.246117 10.765816,105.295883 
	C10.047269,107.731178 9.512689,109.858734 8.818790,112.329407 
	C8.440163,114.443260 8.220854,116.213997 8.001545,117.984741 
	C7.826264,117.990494 7.650983,117.996254 7.212277,118.013275 
	C6.514100,118.006035 6.079347,117.987556 5.319170,117.945770 
	C6.420975,111.732956 7.848204,105.543434 9.582367,99.146324 
z"/>
<path fill="#5B9439" opacity="1.000000" stroke="none" 
	d="
M122.985107,33.414139 
	C123.832085,33.513477 124.669502,34.033245 125.732803,34.738579 
	C125.659569,39.083344 125.360466,43.242554 124.996361,47.796036 
	C123.809448,47.841496 122.687531,47.492680 121.225121,47.048561 
	C120.884621,46.953259 120.959496,46.526859 120.953094,46.310387 
	C121.622978,42.007465 122.299271,37.921017 122.985107,33.414139 
z"/>
<path fill="#61894F" opacity="1.000000" stroke="none" 
	d="
M137.886261,172.016891 
	C137.206696,172.010040 136.527130,172.003189 135.507782,171.992340 
	C134.769363,167.669739 134.370728,163.351135 133.875610,158.299133 
	C133.510452,157.044952 133.241776,156.524155 132.973099,156.003357 
	C132.973099,156.003357 133.006149,155.998535 133.009766,155.662750 
	C133.025452,154.863083 133.037521,154.399185 133.311218,154.059692 
	C135.027924,155.807434 136.483047,157.430771 137.936249,159.463440 
	C137.937317,161.237228 137.940262,162.601669 137.797974,164.305023 
	C137.730576,167.101562 137.808411,169.559235 137.886261,172.016891 
z"/>
<path fill="#779B48" opacity="1.000000" stroke="none" 
	d="
M129.110596,49.363823 
	C133.016129,48.113350 132.485199,45.788700 130.931168,42.891735 
	C130.247482,41.617249 127.781113,39.716274 131.845322,39.211201 
	C133.668381,44.195763 136.819946,44.420265 140.648499,42.944778 
	C140.731262,43.428543 140.814026,43.912308 140.938507,44.761826 
	C137.129730,46.743050 134.436050,51.314632 129.110596,49.363823 
z"/>
<path fill="#643669" opacity="1.000000" stroke="none" 
	d="
M21.988071,179.023285 
	C23.083410,181.561707 24.178747,184.100128 25.126812,186.845886 
	C21.929029,182.882324 18.888939,178.703735 15.820586,174.545990 
	C15.065830,173.523270 14.218955,172.568527 13.318778,171.257980 
	C13.975332,170.370590 14.727539,169.807755 15.854369,169.462799 
	C18.148685,172.794891 20.068378,175.909088 21.988071,179.023285 
z"/>
<path fill="#69A12F" opacity="1.000000" stroke="none" 
	d="
M127.405151,34.936775 
	C127.326294,30.961201 127.662445,27.005882 127.999466,22.610178 
	C128.446686,22.132074 128.893051,22.094355 129.793243,22.378468 
	C130.514465,23.425444 130.781845,24.150585 131.124115,25.217827 
	C132.445236,28.640116 134.315964,31.669436 131.971420,35.042130 
	C130.587662,35.013760 129.203918,34.985394 127.405151,34.936775 
z"/>
<path fill="#B85D43" opacity="1.000000" stroke="none" 
	d="
M57.047050,79.112068 
	C55.416653,80.526596 53.786251,81.941132 51.637756,83.708237 
	C47.759182,86.387634 44.398705,88.714455 41.052319,90.665771 
	C43.039566,87.858543 45.012718,85.426811 47.310593,82.886185 
	C50.413113,81.173813 53.190907,79.570343 56.154411,78.152054 
	C56.575764,78.595520 56.811409,78.853798 57.047050,79.112068 
z"/>
<path fill="#86A85A" opacity="1.000000" stroke="none" 
	d="
M160.343948,229.023804 
	C159.955505,228.831421 159.948822,228.362427 160.369019,228.139740 
	C162.202438,227.866669 163.615677,227.816284 165.492371,227.810852 
	C172.246231,227.824921 178.536636,227.794052 185.213104,227.801971 
	C186.115082,227.888168 186.631012,227.935623 187.146927,227.983063 
	C186.457047,228.624283 185.760437,229.828995 185.078308,229.820847 
	C176.961761,229.723907 168.847351,229.446365 160.343948,229.023804 
z"/>
<path fill="#518641" opacity="1.000000" stroke="none" 
	d="
M153.882858,81.100578 
	C153.340576,80.947121 152.798309,80.793655 152.069077,79.997498 
	C150.943146,75.565422 150.774597,71.930870 154.306671,68.976067 
	C155.094254,68.980774 155.543884,68.981514 155.909088,69.353012 
	C153.593750,74.385582 157.403275,77.329338 158.671585,80.843414 
	C156.853821,80.890495 155.368347,80.995537 153.882858,81.100578 
z"/>
<path fill="#9E5F4D" opacity="1.000000" stroke="none" 
	d="
M41.038227,91.041275 
	C44.398705,88.714455 47.759182,86.387634 51.469902,83.998688 
	C48.257187,88.095398 44.694229,92.254250 40.971584,96.722916 
	C39.763477,97.298683 38.715057,97.564629 37.343254,97.660889 
	C37.019867,97.491196 37.011009,96.998451 37.252274,96.784409 
	C38.345074,95.066971 39.196606,93.563583 40.041351,92.046196 
	C40.034565,92.032196 40.019966,92.012360 40.198841,91.858620 
	C40.608128,91.489670 40.820557,91.257973 41.013443,91.017670 
	C41.011887,91.025558 41.038227,91.041275 41.038227,91.041275 
z"/>
<path fill="#50754B" opacity="1.000000" stroke="none" 
	d="
M153.968719,68.972107 
	C150.774597,71.930870 150.943146,75.565422 151.919312,79.754890 
	C148.660507,78.231468 143.697739,77.224983 147.216156,71.231018 
	C148.697815,69.767609 150.185211,68.622429 152.078491,67.392563 
	C152.979156,67.862625 153.473938,68.417366 153.968719,68.972107 
z"/>
<path fill="#6D8C52" opacity="1.000000" stroke="none" 
	d="
M154.142166,81.415474 
	C155.368347,80.995537 156.853821,80.890495 159.047668,80.863327 
	C160.508850,80.950089 161.261673,80.958977 162.014481,80.967873 
	C163.400879,80.961891 164.787292,80.955910 166.992935,80.923409 
	C171.188797,79.927216 174.565414,78.957550 177.942032,77.987885 
	C178.139420,77.995209 178.336807,78.002533 178.829269,78.035812 
	C176.561539,83.385162 171.101395,82.005692 166.928131,82.729950 
	C162.930786,83.423676 158.590851,82.143196 154.142166,81.415474 
z"/>
<path fill="#76944D" opacity="1.000000" stroke="none" 
	d="
M163.047775,204.873093 
	C162.879745,202.480942 162.711716,200.088791 162.677200,197.360962 
	C162.010162,201.572433 164.975662,203.273499 168.437714,204.889648 
	C171.023407,206.096710 173.358948,207.839706 175.574142,209.658783 
	C174.566925,209.979401 173.791473,209.985275 172.716522,209.803040 
	C170.628311,209.033646 168.839600,208.452362 166.828903,207.647964 
	C165.420547,206.574265 164.234161,205.723679 163.047775,204.873093 
z"/>
<path fill="#708F4E" opacity="1.000000" stroke="none" 
	d="
M157.032364,140.978394 
	C155.785782,139.153137 154.539200,137.327911 152.965576,135.063431 
	C152.436890,134.414627 152.224915,134.216095 152.002609,134.028595 
	C151.216248,133.704529 150.429901,133.380463 149.099716,132.988678 
	C148.555893,132.920959 148.103317,132.888474 148.090851,132.515640 
	C148.076508,131.396240 148.074615,130.649689 148.072723,129.903122 
	C153.695740,131.953659 157.383560,136.038788 159.982910,141.632904 
	C159.964539,142.016800 159.874222,142.073486 159.601761,141.936951 
	C158.563644,141.526398 157.798004,141.252396 157.032364,140.978394 
z"/>
<path fill="#572573" opacity="1.000000" stroke="none" 
	d="
M77.952927,214.939667 
	C74.899017,214.632874 71.845108,214.326096 68.356720,214.014038 
	C66.183868,213.666031 64.445496,213.323303 62.321724,212.925583 
	C61.953735,212.455658 61.971146,212.040710 62.434372,211.308960 
	C67.904434,212.307983 72.928680,213.623825 77.952927,214.939667 
z"/>
<path fill="#5D7F55" opacity="1.000000" stroke="none" 
	d="
M133.049606,153.935303 
	C133.037521,154.399185 133.025452,154.863083 132.997879,155.674622 
	C128.084686,153.888077 123.186974,151.753906 118.083572,149.325989 
	C118.742142,148.817245 119.606392,148.602249 121.086075,148.248917 
	C122.125351,148.124939 122.549179,148.139313 123.143112,148.431976 
	C125.201355,149.781540 127.089493,150.852798 129.323822,151.969391 
	C130.783447,152.334152 131.896851,152.653564 133.019562,153.213577 
	C133.028839,153.454178 133.049606,153.935303 133.049606,153.935303 
z"/>
<path fill="#4E6C54" opacity="1.000000" stroke="none" 
	d="
M112.580925,126.970383 
	C112.303215,131.034500 111.637756,135.150040 110.947151,139.697021 
	C107.746567,133.118759 108.101097,129.463318 112.580925,126.970383 
z"/>
<path fill="#5A316A" opacity="1.000000" stroke="none" 
	d="
M87.597382,191.123001 
	C88.004913,191.205933 88.027771,191.659454 87.689438,192.025970 
	C85.591492,192.587189 83.831871,192.781891 82.170853,192.812012 
	C81.511917,192.426727 80.754379,192.205994 79.604675,191.980591 
	C78.171417,191.962753 77.130333,191.949585 76.089249,191.936417 
	C75.476273,191.125854 74.863297,190.315277 74.142258,189.217651 
	C78.419411,189.633743 82.804626,190.336899 87.597382,191.123001 
z"/>
<path fill="#62953C" opacity="1.000000" stroke="none" 
	d="
M148.059357,129.933182 
	C148.074615,130.649689 148.076508,131.396240 147.734726,132.615814 
	C145.264313,133.056702 143.137573,133.024582 141.008286,132.599747 
	C140.999771,131.163284 140.993805,130.119568 141.401596,129.063660 
	C142.921112,129.025208 144.026886,128.998932 145.132660,128.972656 
	C145.132660,128.972656 145.579254,129.022186 146.044922,129.219635 
	C147.044220,129.600113 147.577850,129.783127 148.111481,129.966156 
	C148.111481,129.966156 148.046005,129.963242 148.059357,129.933182 
z"/>
<path fill="#7F9E44" opacity="1.000000" stroke="none" 
	d="
M187.403381,227.778259 
	C186.631012,227.935623 186.115082,227.888168 185.196243,227.454529 
	C183.811951,223.772461 182.830582,220.476578 181.896652,217.122421 
	C181.944077,217.064148 182.025299,216.937714 182.025299,216.937714 
	C183.903473,220.482956 185.781647,224.028214 187.403381,227.778259 
z"/>
<path fill="#779B48" opacity="1.000000" stroke="none" 
	d="
M173.016006,209.991150 
	C173.791473,209.985275 174.566925,209.979401 175.730347,209.969177 
	C178.065979,212.056046 180.013687,214.147293 181.993347,216.588135 
	C182.025299,216.937714 181.944077,217.064148 181.570572,217.013824 
	C178.470047,214.639389 175.743027,212.315262 173.016006,209.991150 
z"/>
<path fill="#779B48" opacity="1.000000" stroke="none" 
	d="
M131.049240,24.875727 
	C130.781845,24.150585 130.514465,23.425444 130.125290,22.436253 
	C133.338440,24.183573 136.673386,26.194941 139.971802,28.634502 
	C139.935272,29.062698 139.775543,29.215591 139.444489,29.117920 
	C136.425354,27.638741 133.737305,26.257233 131.049240,24.875727 
z"/>
<path fill="#5D7F55" opacity="1.000000" stroke="none" 
	d="
M119.019684,128.071228 
	C118.786858,127.875389 118.562965,127.669823 118.190445,127.289345 
	C125.851692,127.194679 133.670502,127.265182 141.528320,127.691345 
	C141.397934,128.066498 141.228561,128.085999 140.622894,128.089828 
	C138.449982,128.108368 136.713348,128.142578 134.551163,128.144760 
	C132.415131,128.119690 130.704666,128.126648 128.567474,128.108398 
	C126.432846,128.101883 124.724937,128.120590 122.617210,128.123810 
	C121.151482,128.095963 120.085587,128.083603 119.019684,128.071228 
z"/>
<path fill="#779B48" opacity="1.000000" stroke="none" 
	d="
M142.970581,39.643036 
	C142.588516,40.474403 142.047195,40.996899 141.238571,41.201187 
	C140.572693,36.993851 140.174118,33.104721 139.775543,29.215591 
	C139.775543,29.215591 139.935272,29.062698 140.015167,28.986286 
	C141.000473,32.384636 141.905884,35.859402 142.970581,39.643036 
z"/>
<path fill="#BB6244" opacity="1.000000" stroke="none" 
	d="
M57.400002,79.062904 
	C56.811409,78.853798 56.575764,78.595520 56.391663,77.925507 
	C58.634705,76.684631 60.826202,75.855484 63.017700,75.026329 
	C62.761963,75.477043 62.506222,75.927757 62.119453,76.602539 
	C60.576603,77.555649 59.164780,78.284691 57.400002,79.062904 
z"/>
<path fill="#5B3B6B" opacity="1.000000" stroke="none" 
	d="
M123.320564,210.863647 
	C122.775246,210.628372 122.583351,210.445801 122.532005,209.952362 
	C124.733124,209.032639 126.789886,208.427780 128.846649,207.822937 
	C128.846649,207.822937 128.961746,207.956482 129.019165,208.023361 
	C127.277000,209.030930 125.477394,209.971634 123.320564,210.863647 
z"/>
<path fill="#90455C" opacity="1.000000" stroke="none" 
	d="
M32.277382,115.810905 
	C32.138348,115.107323 32.261791,114.195976 32.600822,113.139771 
	C32.724224,113.864326 32.632038,114.733734 32.277382,115.810905 
z"/>
<path fill="#708F4E" opacity="1.000000" stroke="none" 
	d="
M161.049332,144.545151 
	C160.579056,145.155930 160.086258,145.442734 159.329346,145.832779 
	C159.065247,145.936020 159.034851,145.470840 159.170166,144.964966 
	C159.495056,143.663879 159.684647,142.868683 159.874237,142.073486 
	C159.874222,142.073486 159.964539,142.016800 160.009720,141.988525 
	C160.378860,142.713898 160.702835,143.467545 161.049332,144.545151 
z"/>
<path fill="#708F4E" opacity="1.000000" stroke="none" 
	d="
M141.059189,128.105499 
	C141.228561,128.085999 141.397934,128.066498 141.820114,128.007996 
	C142.965622,128.112717 143.858322,128.256470 144.941833,128.686432 
	C144.026886,128.998932 142.921112,129.025208 141.413757,128.820236 
	C141.012177,128.588989 141.059189,128.105499 141.059189,128.105499 
z"/>
<path fill="#AE6D4F" opacity="1.000000" stroke="none" 
	d="
M50.949944,53.621731 
	C50.445583,53.746471 49.958805,53.572922 49.246487,53.270081 
	C49.493298,52.807381 49.965645,52.473980 50.730083,52.133869 
	C51.003960,52.525921 50.985744,52.924683 50.949944,53.621731 
z"/>
<path fill="#4E6C54" opacity="1.000000" stroke="none" 
	d="
M117.014618,126.735992 
	C116.678375,126.968178 116.147934,126.978127 115.218941,126.980209 
	C115.487061,126.819489 116.153748,126.666634 117.014618,126.735992 
z"/>
<path fill="#5A316A" opacity="1.000000" stroke="none" 
	d="
M73.897736,188.697723 
	C73.525810,188.773743 72.992821,188.585251 72.209991,188.260544 
	C72.552322,188.227280 73.144501,188.330246 73.897736,188.697723 
z"/>
<path fill="#5D7F55" opacity="1.000000" stroke="none" 
	d="
M133.000488,156.315109 
	C133.241776,156.524155 133.510452,157.044952 133.869843,157.845428 
	C133.649689,157.625702 133.338791,157.126282 133.000488,156.315109 
z"/>
<path fill="#4E6C54" opacity="1.000000" stroke="none" 
	d="
M110.962593,140.282471 
	C111.204582,140.493851 111.482811,141.020142 111.858223,141.828445 
	C111.636551,141.606110 111.317688,141.101746 110.962593,140.282471 
z"/>
<path fill="#708F4E" opacity="1.000000" stroke="none" 
	d="
M147.958954,129.690948 
	C147.577850,129.783127 147.044220,129.600113 146.259674,129.285645 
	C146.607971,129.241394 147.207184,129.328568 147.958954,129.690948 
z"/>
<path fill="#703172" opacity="1.000000" stroke="none" 
	d="
M67.959305,186.753906 
	C67.827438,186.810089 67.594055,186.651611 67.203560,186.347763 
	C67.381477,186.151611 67.651924,186.263901 67.959305,186.753906 
z"/>
<path fill="#4E6C54" opacity="1.000000" stroke="none" 
	d="
M114.056107,126.798798 
	C113.979576,126.974457 113.769569,126.974533 113.244720,126.964249 
	C113.260788,126.843674 113.591713,126.733444 114.056107,126.798798 
z"/>
<path fill="#5E9832" opacity="1.000000" stroke="none" 
	d="
M141.010834,132.992462 
	C143.137573,133.024582 145.264313,133.056702 147.747192,132.988647 
	C148.103317,132.888474 148.555893,132.920959 148.782272,132.937286 
	C145.710587,139.684540 148.357712,146.737045 148.216904,153.584076 
	C147.809952,173.373230 148.453201,193.182632 148.522141,212.984650 
	C148.530579,215.403763 147.552078,217.826309 146.992737,220.638794 
	C139.567871,217.510651 139.674530,210.512131 139.241257,203.928391 
	C138.854919,198.057709 138.918869,192.155731 138.844498,186.266800 
	C138.792435,182.144867 138.842010,178.021622 139.065582,173.194000 
	C141.485672,169.231201 140.467712,166.480072 137.943222,163.966125 
	C137.940262,162.601669 137.937317,161.237228 138.172913,159.274551 
	C139.216919,155.105881 140.412262,151.570038 140.732986,147.956573 
	C141.173019,142.999359 140.949829,137.983307 141.010834,132.992462 
z"/>
<path fill="#6EA62A" opacity="1.000000" stroke="none" 
	d="
M162.736282,204.822937 
	C164.234161,205.723679 165.420547,206.574265 166.719604,208.029816 
	C166.393890,212.120346 165.879303,215.598511 165.540817,219.093750 
	C165.261902,221.973984 165.191635,224.874420 165.028900,227.765915 
	C163.615677,227.816284 162.202438,227.866669 160.362457,227.905289 
	C155.195541,220.170929 156.069534,212.381256 159.856628,204.245682 
	C160.845779,204.212372 161.635284,204.492584 162.736282,204.822937 
z"/>
<path fill="#71973F" opacity="1.000000" stroke="none" 
	d="
M159.601776,141.936951 
	C159.684647,142.868683 159.495056,143.663879 159.159546,144.732117 
	C158.403534,143.874466 157.793457,142.743774 157.107880,141.295746 
	C157.798004,141.252396 158.563644,141.526398 159.601776,141.936951 
z"/>
<path fill="#5E9832" opacity="1.000000" stroke="none" 
	d="
M148.042847,223.770065 
	C147.647202,223.217529 147.345840,222.436432 147.004913,221.340851 
	C147.355927,221.864761 147.746536,222.703140 148.042847,223.770065 
z"/>
<path fill="#5E9832" opacity="1.000000" stroke="none" 
	d="
M152.151932,134.187073 
	C152.224915,134.216095 152.436890,134.414627 152.784470,134.783936 
	C152.713058,134.752350 152.503342,134.552963 152.151932,134.187073 
z"/>
<path fill="#75AB2A" opacity="1.000000" stroke="none" 
	d="
M181.954605,26.370121 
	C196.696762,23.775370 199.630630,28.385408 197.040985,40.581444 
	C194.981018,48.484653 193.195206,56.059895 190.759232,63.419949 
	C189.956146,65.846375 187.473053,67.716759 185.448166,69.973801 
	C183.772598,68.259590 181.239151,66.418839 181.229843,64.565414 
	C181.166672,51.978607 181.635834,39.389126 181.954605,26.370121 
z"/>
<path fill="#649D31" opacity="1.000000" stroke="none" 
	d="
M177.573608,77.986732 
	C174.565414,78.957550 171.188797,79.927216 167.408463,80.903275 
	C167.016235,76.644295 167.052780,72.378822 167.033768,68.113602 
	C166.999557,60.440063 166.773178,52.763439 166.928970,45.094238 
	C167.052460,39.015297 167.627365,32.945522 168.097702,26.467430 
	C169.527786,26.048336 170.861984,26.033491 172.599625,26.014847 
	C173.279236,30.415653 173.771500,34.821575 173.744766,39.224342 
	C173.730362,41.593838 172.826126,43.957932 172.001755,47.011841 
	C171.044586,54.441879 170.798264,61.251823 169.648041,67.905510 
	C168.757919,73.054451 170.255463,76.180527 174.990280,77.973701 
	C175.728577,77.977661 176.466873,77.981621 177.573608,77.986732 
z"/>
<path fill="#659E30" opacity="1.000000" stroke="none" 
	d="
M174.982849,77.582993 
	C170.255463,76.180527 168.757919,73.054451 169.648041,67.905510 
	C170.798264,61.251823 171.044586,54.441879 171.840271,47.352196 
	C172.664307,51.798164 174.088928,56.638935 173.791641,61.371548 
	C173.451263,66.790611 172.835876,72.035606 174.982849,77.582993 
z"/>
<path fill="#75AB2A" opacity="1.000000" stroke="none" 
	d="
M183.878143,72.058006 
	C183.846863,72.484390 183.613815,73.018486 183.224594,73.798309 
	C183.271057,73.417923 183.473694,72.791824 183.878143,72.058006 
z"/>
<path fill="#632282" opacity="1.000000" stroke="none" 
	d="
M128.993164,207.520752 
	C126.789886,208.427780 124.733124,209.032639 122.382248,209.821884 
	C115.657799,211.670258 109.227486,213.334244 102.040756,215.027115 
	C100.191597,215.361847 99.098846,215.667694 98.006096,215.973541 
	C96.931885,215.979004 95.857674,215.984467 94.012932,215.828766 
	C88.823372,215.445343 84.404350,215.223083 79.985321,215.000839 
	C79.534103,214.989059 79.082893,214.977280 78.292297,214.952576 
	C72.928680,213.623825 67.904434,212.307983 62.441734,210.997589 
	C61.156372,210.431732 60.309467,209.860413 59.058014,208.831482 
	C56.746834,207.264496 54.840202,206.155075 52.933571,205.045685 
	C52.441151,204.794739 51.948734,204.543808 51.209679,204.167038 
	C52.058353,202.768890 53.183704,200.384583 54.243866,200.413193 
	C59.340858,200.550949 62.761585,197.395782 66.754898,195.184067 
	C69.409904,193.713608 72.525635,193.074997 75.762192,192.000229 
	C77.130333,191.949585 78.171417,191.962753 79.847565,192.135849 
	C81.012512,192.522705 81.542389,192.749649 82.072258,192.976593 
	C83.831871,192.781891 85.591492,192.587189 87.699066,192.252808 
	C90.110130,192.377533 92.173233,192.641922 94.943863,192.889679 
	C96.436165,192.584015 97.220963,192.294998 98.005753,192.005981 
	C108.257225,191.919724 117.401672,188.495316 125.835686,182.854782 
	C131.619843,178.986435 133.452957,179.826050 134.178070,186.543091 
	C134.284790,187.531693 134.443100,188.515839 134.608398,189.496841 
	C135.758682,196.323303 135.436081,202.691574 128.993164,207.520752 
z"/>
<path fill="#6F2B7A" opacity="1.000000" stroke="none" 
	d="
M38.079475,194.743469 
	C35.082336,192.563248 32.222408,190.059280 29.165951,187.285980 
	C33.423122,183.808136 37.041016,179.509247 43.212765,178.839539 
	C48.667389,178.247635 52.772316,179.982574 56.749886,183.743759 
	C55.865444,185.036026 54.659283,187.064301 53.651684,186.970032 
	C46.890697,186.337524 42.911777,191.048309 38.079475,194.743469 
z"/>
<path fill="#7B3470" opacity="1.000000" stroke="none" 
	d="
M22.328606,178.889221 
	C20.068378,175.909088 18.148685,172.794891 16.117661,169.358276 
	C21.467243,166.288635 26.783623,163.136993 32.496658,161.095215 
	C33.827446,160.619598 36.506786,163.917297 38.776047,165.738068 
	C35.297234,172.487991 29.740995,176.590805 22.328606,178.889221 
z"/>
<path fill="#559037" opacity="1.000000" stroke="none" 
	d="
M161.956207,80.554733 
	C161.261673,80.958977 160.508850,80.950089 159.379944,80.921280 
	C157.403275,77.329338 153.593750,74.385582 156.055389,69.072968 
	C157.185364,67.278435 158.084625,66.134712 159.187164,64.794266 
	C159.924698,64.065544 160.458969,63.533543 160.993240,63.001541 
	C161.294800,68.714890 161.596359,74.428238 161.956207,80.554733 
z"/>
<path fill="#588E3A" opacity="1.000000" stroke="none" 
	d="
M161.181915,62.732750 
	C160.458969,63.533543 159.924698,64.065544 159.190460,64.380676 
	C158.986572,62.786758 158.982651,61.409718 158.978729,60.032673 
	C159.069321,58.900654 159.388260,57.725952 159.186890,56.648506 
	C158.981827,55.551411 158.264618,54.550045 157.887634,53.255398 
	C159.118774,53.285480 160.233932,53.566929 161.843811,54.101784 
	C162.555817,54.582642 162.781570,54.801361 163.015762,55.011353 
	C165.925308,58.258892 162.789749,60.171978 161.181915,62.732750 
z"/>
<path fill="#508A3A" opacity="1.000000" stroke="none" 
	d="
M163.184250,54.850235 
	C162.781570,54.801361 162.555817,54.582642 162.179596,54.181931 
	C162.457687,54.007912 162.894745,54.007160 163.659515,54.006596 
	C163.784790,54.242641 163.573288,54.470085 163.184250,54.850235 
z"/>
<path fill="#9A4957" opacity="1.000000" stroke="none" 
	d="
M7.448846,137.990997 
	C7.008241,135.623306 6.997461,133.256958 6.989751,130.447144 
	C11.362177,128.725967 15.724333,127.422905 20.103556,126.179977 
	C22.779398,125.420509 25.481468,124.753448 28.564692,124.020035 
	C29.408606,128.752487 27.247824,132.239197 22.986118,133.800674 
	C18.094986,135.592773 12.926609,136.628220 7.448846,137.990997 
z"/>
<path fill="#AB524E" opacity="1.000000" stroke="none" 
	d="
M8.070839,118.342804 
	C8.220854,116.213997 8.440163,114.443260 9.128986,112.457321 
	C12.605939,111.539406 15.613770,110.838348 18.620718,110.133530 
	C23.075960,109.089249 27.530577,108.042297 31.985458,106.996475 
	C29.205698,115.413567 21.574387,121.324379 12.516461,121.560104 
	C11.083457,121.597389 9.600170,119.702454 8.070839,118.342804 
z"/>
<path fill="#B25847" opacity="1.000000" stroke="none" 
	d="
M32.123474,106.677933 
	C27.530577,108.042297 23.075960,109.089249 18.620718,110.133530 
	C15.613770,110.838348 12.605939,111.539406 9.288305,112.114212 
	C9.512689,109.858734 10.047269,107.731178 11.169304,105.274857 
	C15.385376,103.875900 19.032124,102.862976 22.638144,101.721390 
	C27.445677,100.199448 32.221542,98.577469 37.011009,96.998451 
	C37.011009,96.998451 37.019867,97.491196 37.027466,97.737274 
	C35.443874,100.775360 33.852684,103.567368 32.123474,106.677933 
z"/>
<path fill="#B95D43" opacity="1.000000" stroke="none" 
	d="
M103.306168,68.887573 
	C100.913712,68.689850 98.848328,68.332672 96.380722,67.715012 
	C95.978500,67.454521 95.973907,66.969742 96.231674,66.751144 
	C100.493011,64.655060 104.461418,62.697411 108.509468,60.921314 
	C113.102966,58.905907 117.811905,57.148258 122.360367,55.040539 
	C123.166901,54.666801 123.434387,53.129814 123.950790,52.129982 
	C125.445580,52.812832 127.084312,53.289814 128.408981,54.215984 
	C132.914627,57.366219 132.484894,60.831348 127.890709,63.838493 
	C121.748741,67.858749 114.987434,68.387161 108.011650,68.391891 
	C106.552109,68.392883 105.092712,68.610390 103.306168,68.887573 
z"/>
<path fill="#C3623C" opacity="1.000000" stroke="none" 
	d="
M123.627670,51.969486 
	C123.434387,53.129814 123.166901,54.666801 122.360367,55.040539 
	C117.811905,57.148258 113.102966,58.905907 108.509468,60.921314 
	C104.461418,62.697411 100.493011,64.655060 95.978516,66.844032 
	C94.992264,67.403297 94.516945,67.651077 94.041618,67.898865 
	C91.988213,67.926910 89.934807,67.954956 87.258942,67.745857 
	C83.757835,67.671150 80.879181,67.833588 78.125839,67.679352 
	C80.303154,65.816254 82.144798,63.744507 84.446899,62.822556 
	C91.177078,60.127243 98.230667,58.212498 104.870476,55.330547 
	C107.934158,54.000782 110.329720,51.131702 113.028214,48.960564 
	C113.473724,48.970131 113.919243,48.979698 114.699585,48.996189 
	C117.791138,49.938404 120.547844,50.873695 123.627670,51.969486 
z"/>
<path fill="#5A316A" opacity="1.000000" stroke="none" 
	d="
M97.692078,192.047592 
	C97.220963,192.294998 96.436165,192.584015 95.337471,192.904602 
	C95.808517,192.653839 96.593460,192.371521 97.692078,192.047592 
z"/>
<path fill="#46843C" opacity="1.000000" stroke="none" 
	d="
M146.978149,42.997459 
	C148.114365,41.112411 149.250595,39.227367 150.678040,37.175770 
	C151.646454,40.806110 152.421082,44.588840 152.975891,48.403542 
	C153.648773,53.030045 154.135986,57.683552 154.689056,62.932541 
	C153.804642,64.024857 152.934738,64.510002 152.064835,64.995148 
	C151.244400,65.253563 150.423965,65.511971 149.139877,65.514038 
	C148.110199,57.837616 147.544189,50.417538 146.978149,42.997459 
z"/>
<path fill="#5A8946" opacity="1.000000" stroke="none" 
	d="
M152.057068,65.322205 
	C152.934738,64.510002 153.804642,64.024857 154.842285,63.281509 
	C156.189026,62.179230 157.368057,61.335152 158.762909,60.261871 
	C158.982651,61.409718 158.986572,62.786758 158.987198,64.577393 
	C158.084625,66.134712 157.185364,67.278435 156.139816,68.702209 
	C155.543884,68.981514 155.094254,68.980774 154.306671,68.976074 
	C153.473938,68.417366 152.979156,67.862625 152.266251,67.131912 
	C152.048508,66.520378 152.048904,66.084824 152.057068,65.322205 
z"/>
<path fill="#76A930" opacity="1.000000" stroke="none" 
	d="
M139.444489,29.117920 
	C140.174118,33.104721 140.572693,36.993851 140.967072,41.301956 
	C140.912689,41.925301 140.862549,42.129669 140.730438,42.639412 
	C136.819946,44.420265 133.668381,44.195763 132.100906,39.275402 
	C131.957062,37.906143 131.968658,36.864391 131.975830,35.432381 
	C134.315964,31.669436 132.445236,28.640116 131.124115,25.217827 
	C133.737305,26.257233 136.425354,27.638741 139.444489,29.117920 
z"/>
<path fill="#3F7E3E" opacity="1.000000" stroke="none" 
	d="
M146.693481,43.178787 
	C147.544189,50.417538 148.110199,57.837616 148.841248,65.637283 
	C147.612213,65.645683 145.049469,65.388443 145.000488,64.886093 
	C144.334000,58.050522 141.651413,51.118694 145.350586,44.372101 
	C145.574326,43.964043 146.050217,43.694244 146.693481,43.178787 
z"/>
<path fill="#CF6B33" opacity="1.000000" stroke="none" 
	d="
M25.833954,76.837517 
	C32.828411,70.420692 39.810699,63.990501 46.829029,57.599892 
	C48.030106,56.506241 49.385063,55.581589 50.833195,54.287849 
	C54.562897,52.793171 58.220737,51.808132 61.677471,50.347237 
	C75.202576,44.631226 89.092491,43.382359 103.628479,47.053421 
	C101.809219,49.357685 100.026917,51.673645 97.675522,52.778965 
	C92.585655,55.171555 87.236458,57.032913 81.934830,58.949776 
	C73.710854,61.923264 65.439682,64.766388 57.185509,67.656158 
	C49.415585,70.376396 41.635143,73.066925 33.880219,75.829155 
	C33.132439,76.095505 32.492172,76.730568 31.871025,77.273453 
	C29.695887,79.174576 27.700996,78.994919 25.833954,76.837517 
z"/>
<path fill="#C96638" opacity="1.000000" stroke="none" 
	d="
M25.525974,76.855652 
	C27.700996,78.994919 29.695887,79.174576 31.871025,77.273453 
	C32.492172,76.730568 33.132439,76.095505 33.880219,75.829155 
	C41.635143,73.066925 49.415585,70.376396 57.185509,67.656158 
	C65.439682,64.766388 73.710854,61.923264 81.934830,58.949776 
	C87.236458,57.032913 92.585655,55.171555 97.675522,52.778965 
	C100.026917,51.673645 101.809219,49.357685 103.962219,47.242859 
	C106.856735,47.442020 109.638565,47.988934 112.724304,48.748207 
	C110.329720,51.131702 107.934158,54.000782 104.870476,55.330547 
	C98.230667,58.212498 91.177078,60.127243 84.446899,62.822556 
	C82.144798,63.744507 80.303154,65.816254 77.752968,67.689484 
	C75.833839,68.346497 74.412880,68.676689 72.565300,69.009293 
	C60.442711,69.883629 50.184982,74.819771 40.061275,80.224434 
	C37.174126,81.765755 33.992054,82.743950 31.010521,84.121681 
	C26.469286,86.220139 23.832123,84.847916 22.948915,79.963959 
	C23.239258,79.154099 23.529600,78.344238 23.899502,77.218307 
	C24.392038,76.892754 24.805019,76.883270 25.525974,76.855652 
z"/>
<path fill="#589235" opacity="1.000000" stroke="none" 
	d="
M137.797974,164.305023 
	C140.467712,166.480072 141.485672,169.231201 139.087967,172.782043 
	C138.665115,172.843124 138.442352,172.608246 138.054474,172.193665 
	C137.808411,169.559235 137.730576,167.101562 137.797974,164.305023 
z"/>
<path fill="#68287C" opacity="1.000000" stroke="none" 
	d="
M53.035423,205.376221 
	C54.840202,206.155075 56.746834,207.264496 58.804932,208.658646 
	C57.016693,207.864517 55.076984,206.785645 53.035423,205.376221 
z"/>
<path fill="#41803E" opacity="1.000000" stroke="none" 
	d="
M118.918289,128.406799 
	C120.085587,128.083603 121.151482,128.095963 122.613022,128.572876 
	C122.996780,135.409515 122.984894,141.781601 122.973015,148.153687 
	C122.549179,148.139313 122.125351,148.124939 121.384964,148.097351 
	C114.330055,142.768280 113.968735,139.664352 118.918289,128.406799 
z"/>
<path fill="#C4633B" opacity="1.000000" stroke="none" 
	d="
M22.700827,80.195251 
	C23.832123,84.847916 26.469286,86.220139 31.010521,84.121681 
	C33.992054,82.743950 37.174126,81.765755 40.061275,80.224434 
	C50.184982,74.819771 60.442711,69.883629 72.309891,69.213852 
	C70.982681,70.576157 69.484261,71.736320 67.985840,72.896492 
	C66.541931,73.531944 65.098015,74.167404 63.335907,74.914597 
	C60.826202,75.855484 58.634705,76.684631 56.205956,77.740326 
	C53.190907,79.570343 50.413113,81.173813 46.997391,82.759308 
	C39.398407,85.163788 32.270763,87.208244 25.547926,90.171204 
	C22.279991,91.611465 19.779799,92.491943 16.949192,89.968719 
	C18.783707,86.787994 20.618223,83.607277 22.700827,80.195251 
z"/>
<path fill="#BB6244" opacity="1.000000" stroke="none" 
	d="
M68.350471,72.823059 
	C69.484261,71.736320 70.982681,70.576157 72.736511,69.211433 
	C74.412880,68.676689 75.833839,68.346497 77.627670,68.006165 
	C80.879181,67.833588 83.757835,67.671150 86.819138,67.738907 
	C80.906235,69.562614 74.810669,71.156113 68.350471,72.823059 
z"/>
<path fill="#BB6244" opacity="1.000000" stroke="none" 
	d="
M94.363586,67.917068 
	C94.516945,67.651077 94.992264,67.403297 95.720749,67.062637 
	C95.973907,66.969742 95.978500,67.454521 95.977432,67.696236 
	C95.546104,67.937057 95.115829,67.936165 94.363586,67.917068 
z"/>
<path fill="#572573" opacity="1.000000" stroke="none" 
	d="
M80.360748,215.169128 
	C84.404350,215.223083 88.823372,215.445343 93.610107,215.829987 
	C89.563927,215.774063 85.150047,215.555740 80.360748,215.169128 
z"/>
<path fill="#572573" opacity="1.000000" stroke="none" 
	d="
M98.352020,215.958466 
	C99.098846,215.667694 100.191597,215.361847 101.628647,215.041229 
	C100.881279,215.332108 99.789619,215.637756 98.352020,215.958466 
z"/>
<path fill="#B85D43" opacity="1.000000" stroke="none" 
	d="
M37.252274,96.784409 
	C32.221542,98.577469 27.445677,100.199448 22.638144,101.721390 
	C19.032124,102.862976 15.385376,103.875900 11.353271,104.967125 
	C11.257835,103.246117 11.565887,101.504082 11.917674,99.386208 
	C13.089268,97.084152 14.217126,95.157936 15.912791,93.324570 
	C18.615879,95.230293 20.517014,95.429176 23.575382,94.661949 
	C28.906958,93.324486 33.878555,88.200554 40.048141,92.060196 
	C39.196606,93.563583 38.345074,95.066971 37.252274,96.784409 
z"/>
<path fill="#C0603F" opacity="1.000000" stroke="none" 
	d="
M40.041351,92.046196 
	C33.878555,88.200554 28.906958,93.324486 23.575382,94.661949 
	C20.517014,95.429176 18.615879,95.230293 16.222565,93.192085 
	C16.193670,92.155106 16.422810,91.343452 16.800571,90.250259 
	C19.779799,92.491943 22.279991,91.611465 25.547926,90.171204 
	C32.270763,87.208244 39.398407,85.163788 46.672668,82.868210 
	C45.012718,85.426811 43.039566,87.858543 41.052319,90.665771 
	C41.038227,91.041275 41.011887,91.025558 40.840759,91.178009 
	C40.443974,91.549080 40.227417,91.776382 40.019966,92.012360 
	C40.019966,92.012360 40.034565,92.032196 40.041351,92.046196 
z"/>
<path fill="#589235" opacity="1.000000" stroke="none" 
	d="
M141.008286,132.599731 
	C140.949829,137.983307 141.173019,142.999359 140.732986,147.956573 
	C140.412262,151.570038 139.216919,155.105881 138.174820,158.865234 
	C136.483047,157.430771 135.027924,155.807434 133.311218,154.059692 
	C133.049606,153.935303 133.028839,153.454178 133.183380,152.838882 
	C133.558395,150.107880 133.853195,147.996811 133.985107,145.875595 
	C134.351837,139.978241 134.650925,134.076691 134.976730,128.176788 
	C136.713348,128.142578 138.449982,128.108368 140.622894,128.089828 
	C141.059189,128.105499 141.012177,128.588989 141.000015,128.832413 
	C140.993805,130.119568 140.999771,131.163284 141.008286,132.599731 
z"/>
<path fill="#76AB2B" opacity="1.000000" stroke="none" 
	d="
M165.492371,227.810852 
	C165.191635,224.874420 165.261902,221.973984 165.540817,219.093750 
	C165.879303,215.598511 166.393890,212.120346 166.941589,208.252930 
	C168.839600,208.452362 170.628311,209.033646 172.716522,209.803040 
	C175.743027,212.315262 178.470047,214.639389 181.523148,217.072098 
	C182.830582,220.476578 183.811951,223.772461 184.810181,227.415771 
	C178.536636,227.794052 172.246231,227.824921 165.492371,227.810852 
z"/>
<path fill="#B85D43" opacity="1.000000" stroke="none" 
	d="
M40.198841,91.858620 
	C40.227417,91.776382 40.443974,91.549080 40.842316,91.170120 
	C40.820557,91.257973 40.608128,91.489670 40.198841,91.858620 
z"/>
<path fill="#4F8C39" opacity="1.000000" stroke="none" 
	d="
M134.551163,128.144760 
	C134.650925,134.076691 134.351837,139.978241 133.985107,145.875595 
	C133.853195,147.996811 133.558395,150.107880 133.174103,152.598282 
	C131.896851,152.653564 130.783447,152.334152 129.232819,151.570450 
	C128.861801,143.461990 128.927994,135.797806 128.994202,128.133621 
	C130.704666,128.126648 132.415131,128.119690 134.551163,128.144760 
z"/>
<path fill="#49853B" opacity="1.000000" stroke="none" 
	d="
M128.567474,128.108398 
	C128.927994,135.797806 128.861801,143.461990 128.886612,151.525116 
	C127.089493,150.852798 125.201355,149.781540 123.143112,148.431976 
	C122.984894,141.781601 122.996780,135.409515 123.012848,128.588364 
	C124.724937,128.120590 126.432846,128.101883 128.567474,128.108398 
z"/>
<path fill="#68287C" opacity="1.000000" stroke="none" 
	d="
M82.170853,192.812027 
	C81.542389,192.749649 81.012512,192.522705 80.239738,192.140518 
	C80.754379,192.205994 81.511917,192.426727 82.170853,192.812027 
z"/>
</svg>